<mxfile host="drawio-plugin" modified="2022-10-07T07:38:07.331Z" agent="5.0 (Macintosh; Intel Mac OS X 12_5_1) AppleWebKit/537.36 (KHTML, like Gecko) Chrome/89.0.4389.114 Safari/537.36" etag="xoxyLuqxak5rMkL6NKE4" version="15.5.4" type="embed" pages="2"><diagram id="Cx_tmGVktqEy4l7MGV1t" name="Overview"><mxGraphModel dx="2576" dy="3120" grid="0" gridSize="10" guides="1" tooltips="1" connect="1" arrows="1" fold="1" page="0" pageScale="1" pageWidth="850" pageHeight="1100" background="#09555B" math="0" shadow="0"><root><mxCell id="0"/><mxCell id="1" parent="0"/><mxCell id="232" style="edgeStyle=entityRelationEdgeStyle;sketch=0;orthogonalLoop=1;jettySize=auto;html=1;shadow=0;labelBackgroundColor=#09555B;fontFamily=Verdana;fontSize=8;fontColor=#FFFFFF;endArrow=openThin;endFill=0;sourcePerimeterSpacing=4;targetPerimeterSpacing=4;strokeColor=#EEEEEE;strokeWidth=3;dashed=1;dashPattern=1 1;" parent="1" source="202" target="191" edge="1"><mxGeometry relative="1" as="geometry"/></mxCell><mxCell id="233" style="edgeStyle=entityRelationEdgeStyle;sketch=0;orthogonalLoop=1;jettySize=auto;html=1;shadow=0;labelBackgroundColor=#09555B;fontFamily=Verdana;fontSize=8;fontColor=#FFFFFF;endArrow=openThin;endFill=0;sourcePerimeterSpacing=4;targetPerimeterSpacing=4;strokeColor=#EEEEEE;strokeWidth=3;dashed=1;dashPattern=1 1;" parent="1" source="205" target="191" edge="1"><mxGeometry relative="1" as="geometry"/></mxCell><mxCell id="231" style="edgeStyle=orthogonalEdgeStyle;sketch=0;orthogonalLoop=1;jettySize=auto;html=1;shadow=0;labelBackgroundColor=#09555B;fontFamily=Verdana;fontSize=8;fontColor=#FFFFFF;endArrow=openThin;endFill=0;sourcePerimeterSpacing=4;targetPerimeterSpacing=4;strokeColor=#EEEEEE;strokeWidth=3;curved=1;dashed=1;dashPattern=1 1;" parent="1" source="183" target="173" edge="1"><mxGeometry relative="1" as="geometry"><Array as="points"><mxPoint x="19" y="-1083"/><mxPoint x="19" y="-1451"/></Array></mxGeometry></mxCell><mxCell id="210" style="edgeStyle=elbowEdgeStyle;sketch=0;orthogonalLoop=1;jettySize=auto;html=1;shadow=0;labelBackgroundColor=#09555B;fontFamily=Verdana;fontSize=8;fontColor=#FFFFFF;endArrow=openThin;endFill=0;sourcePerimeterSpacing=4;targetPerimeterSpacing=4;strokeColor=#EEEEEE;strokeWidth=3;" parent="1" source="170" target="167" edge="1"><mxGeometry relative="1" as="geometry"/></mxCell><mxCell id="234" style="edgeStyle=elbowEdgeStyle;sketch=0;orthogonalLoop=1;jettySize=auto;html=1;shadow=0;labelBackgroundColor=#09555B;fontFamily=Verdana;fontSize=8;fontColor=#FFFFFF;endArrow=openThin;endFill=0;sourcePerimeterSpacing=4;targetPerimeterSpacing=4;strokeColor=#EEEEEE;strokeWidth=3;" parent="1" source="188" target="167" edge="1"><mxGeometry relative="1" as="geometry"/></mxCell><mxCell id="230" style="edgeStyle=elbowEdgeStyle;sketch=0;orthogonalLoop=1;jettySize=auto;html=1;shadow=0;labelBackgroundColor=#09555B;fontFamily=Verdana;fontSize=8;fontColor=#FFFFFF;endArrow=openThin;endFill=0;sourcePerimeterSpacing=4;targetPerimeterSpacing=4;strokeColor=#EEEEEE;strokeWidth=3;" parent="1" source="212" target="225" edge="1"><mxGeometry relative="1" as="geometry"/></mxCell><mxCell id="212" value="Providers" style="swimlane;rounded=1;fillColor=#1ba1e2;strokeColor=#006EAF;fontColor=#ffffff;" parent="1" vertex="1"><mxGeometry x="-263" y="-1165" width="188" height="301" as="geometry"><mxRectangle x="362" y="106" width="89" height="23" as="alternateBounds"/></mxGeometry></mxCell><mxCell id="213" style="edgeStyle=orthogonalEdgeStyle;orthogonalLoop=1;jettySize=auto;html=1;entryX=0;entryY=0.5;entryDx=0;entryDy=0;rounded=0;curved=1;exitX=0;exitY=0.5;exitDx=0;exitDy=0;dashed=1;labelBackgroundColor=#09555B;strokeColor=#EEEEEE;fontColor=#FFFFFF;" parent="212" edge="1"><mxGeometry relative="1" as="geometry"><mxPoint x="25" y="110.99999999999989" as="sourcePoint"/></mxGeometry></mxCell><mxCell id="182" value="" style="group;perimeterSpacing=4;strokeWidth=7;" parent="212" vertex="1" connectable="0"><mxGeometry x="27" y="52" width="120" height="60" as="geometry"/></mxCell><mxCell id="183" value="" style="rounded=1;whiteSpace=wrap;html=1;shadow=0;glass=0;sketch=0;fillColor=#B1DDF0;strokeColor=#BAC8D3;fontColor=#182E3E;" parent="182" vertex="1"><mxGeometry width="120" height="60" as="geometry"/></mxCell><mxCell id="184" value="&lt;font color=&quot;#000000&quot; face=&quot;Verdana&quot;&gt;BlockCypher - Provider&lt;/font&gt;" style="text;html=1;strokeColor=none;fillColor=none;align=center;verticalAlign=middle;whiteSpace=wrap;rounded=0;shadow=0;glass=0;sketch=0;fontColor=#182E3E;" parent="182" vertex="1"><mxGeometry x="7" y="22" width="106" height="16" as="geometry"/></mxCell><mxCell id="201" value="" style="group;perimeterSpacing=4;strokeColor=none;strokeWidth=7;fontColor=#182E3E;" parent="212" vertex="1" connectable="0"><mxGeometry x="27" y="129" width="120" height="60" as="geometry"/></mxCell><mxCell id="202" value="" style="rounded=1;whiteSpace=wrap;html=1;shadow=0;glass=0;sketch=0;fillColor=#B1DDF0;strokeColor=#BAC8D3;fontColor=#182E3E;" parent="201" vertex="1"><mxGeometry width="120" height="60" as="geometry"/></mxCell><mxCell id="203" value="&lt;font color=&quot;#000000&quot; face=&quot;Verdana&quot;&gt;JsonRpcBatch - Internal&lt;/font&gt;" style="text;html=1;strokeColor=none;fillColor=none;align=center;verticalAlign=middle;whiteSpace=wrap;rounded=0;shadow=0;glass=0;sketch=0;fontColor=#182E3E;" parent="201" vertex="1"><mxGeometry x="7" y="22" width="106" height="16" as="geometry"/></mxCell><mxCell id="204" value="" style="group;perimeterSpacing=4;strokeColor=none;strokeWidth=7;fontColor=#182E3E;" parent="212" vertex="1" connectable="0"><mxGeometry x="27" y="208" width="120" height="60" as="geometry"/></mxCell><mxCell id="205" value="" style="rounded=1;whiteSpace=wrap;html=1;shadow=0;glass=0;sketch=0;fillColor=#B1DDF0;strokeColor=#BAC8D3;fontColor=#182E3E;" parent="204" vertex="1"><mxGeometry width="120" height="60" as="geometry"/></mxCell><mxCell id="206" value="&lt;font color=&quot;#000000&quot; face=&quot;Verdana&quot;&gt;InfuraProvider&lt;/font&gt;" style="text;html=1;strokeColor=none;fillColor=none;align=center;verticalAlign=middle;whiteSpace=wrap;rounded=0;shadow=0;glass=0;sketch=0;fontColor=#182E3E;" parent="204" vertex="1"><mxGeometry x="7" y="22" width="106" height="16" as="geometry"/></mxCell><mxCell id="272" style="edgeStyle=none;sketch=0;orthogonalLoop=1;jettySize=auto;html=1;shadow=0;labelBackgroundColor=#09555B;fontFamily=Verdana;fontSize=8;fontColor=#FFFFFF;endArrow=openThin;endFill=0;sourcePerimeterSpacing=4;targetPerimeterSpacing=4;strokeColor=#EEEEEE;strokeWidth=3;" parent="1" source="259" target="253" edge="1"><mxGeometry relative="1" as="geometry"/></mxCell><mxCell id="259" value="SendServiceHelper" style="swimlane;rounded=1;fillColor=#1ba1e2;strokeColor=#006EAF;fontColor=#ffffff;" parent="1" vertex="1"><mxGeometry x="-771" y="-783" width="312" height="136" as="geometry"><mxRectangle x="362" y="106" width="89" height="23" as="alternateBounds"/></mxGeometry></mxCell><mxCell id="260" style="edgeStyle=orthogonalEdgeStyle;orthogonalLoop=1;jettySize=auto;html=1;entryX=0;entryY=0.5;entryDx=0;entryDy=0;rounded=0;curved=1;exitX=0;exitY=0.5;exitDx=0;exitDy=0;dashed=1;labelBackgroundColor=#09555B;strokeColor=#EEEEEE;fontColor=#FFFFFF;" parent="259" edge="1"><mxGeometry relative="1" as="geometry"><mxPoint x="25" y="110.99999999999989" as="sourcePoint"/></mxGeometry></mxCell><mxCell id="261" value="" style="group;perimeterSpacing=4;strokeWidth=7;" parent="259" vertex="1" connectable="0"><mxGeometry x="27" y="52" width="120" height="60" as="geometry"/></mxCell><mxCell id="262" value="" style="rounded=1;whiteSpace=wrap;html=1;shadow=0;glass=0;sketch=0;fillColor=#B1DDF0;strokeColor=#BAC8D3;fontColor=#182E3E;" parent="261" vertex="1"><mxGeometry width="120" height="60" as="geometry"/></mxCell><mxCell id="263" value="&lt;font color=&quot;#000000&quot; face=&quot;Verdana&quot;&gt;SendServiceBTC&lt;/font&gt;" style="text;html=1;strokeColor=none;fillColor=none;align=center;verticalAlign=middle;whiteSpace=wrap;rounded=0;shadow=0;glass=0;sketch=0;fontColor=#182E3E;" parent="261" vertex="1"><mxGeometry x="7" y="22" width="106" height="16" as="geometry"/></mxCell><mxCell id="264" value="" style="group;perimeterSpacing=4;strokeColor=none;strokeWidth=7;fontColor=#182E3E;" parent="259" vertex="1" connectable="0"><mxGeometry x="163" y="52" width="120" height="60" as="geometry"/></mxCell><mxCell id="265" value="" style="rounded=1;whiteSpace=wrap;html=1;shadow=0;glass=0;sketch=0;fillColor=#B1DDF0;strokeColor=#BAC8D3;fontColor=#182E3E;" parent="264" vertex="1"><mxGeometry width="120" height="60" as="geometry"/></mxCell><mxCell id="266" value="&lt;font color=&quot;#000000&quot; face=&quot;Verdana&quot;&gt;SendServiceEVM&lt;/font&gt;" style="text;html=1;strokeColor=none;fillColor=none;align=center;verticalAlign=middle;whiteSpace=wrap;rounded=0;shadow=0;glass=0;sketch=0;fontColor=#182E3E;" parent="264" vertex="1"><mxGeometry x="7" y="22" width="106" height="16" as="geometry"/></mxCell><mxCell id="313" style="edgeStyle=elbowEdgeStyle;rounded=1;orthogonalLoop=1;jettySize=auto;html=1;shadow=0;fontFamily=Verdana;fontSize=8;fontColor=#FFFFFF;strokeColor=#EEEEEE;strokeWidth=3;labelBackgroundColor=#09555B;endFill=0;endArrow=openThin;targetPerimeterSpacing=4;sourcePerimeterSpacing=4;sketch=0;" parent="1" source="300" target="293" edge="1"><mxGeometry relative="1" as="geometry"/></mxCell><mxCell id="300" value="Providers" style="swimlane;rounded=1;fillColor=#1ba1e2;strokeColor=#006EAF;fontColor=#ffffff;" parent="1" vertex="1"><mxGeometry x="-1230" y="-1082" width="188" height="209" as="geometry"><mxRectangle x="362" y="106" width="89" height="23" as="alternateBounds"/></mxGeometry></mxCell><mxCell id="301" style="edgeStyle=orthogonalEdgeStyle;orthogonalLoop=1;jettySize=auto;html=1;entryX=0;entryY=0.5;entryDx=0;entryDy=0;rounded=0;curved=1;exitX=0;exitY=0.5;exitDx=0;exitDy=0;dashed=1;labelBackgroundColor=#09555B;strokeColor=#EEEEEE;fontColor=#FFFFFF;" parent="300" edge="1"><mxGeometry relative="1" as="geometry"><mxPoint x="25" y="110.99999999999989" as="sourcePoint"/></mxGeometry></mxCell><mxCell id="302" value="" style="group;perimeterSpacing=4;strokeWidth=7;" parent="300" vertex="1" connectable="0"><mxGeometry x="27" y="52" width="120" height="60" as="geometry"/></mxCell><mxCell id="303" value="" style="rounded=1;whiteSpace=wrap;html=1;shadow=0;glass=0;sketch=0;fillColor=#B1DDF0;strokeColor=#BAC8D3;fontColor=#182E3E;" parent="302" vertex="1"><mxGeometry width="120" height="60" as="geometry"/></mxCell><mxCell id="304" value="&lt;font color=&quot;#000000&quot; face=&quot;Verdana&quot;&gt;GlacierProvider&lt;/font&gt;" style="text;html=1;strokeColor=none;fillColor=none;align=center;verticalAlign=middle;whiteSpace=wrap;rounded=0;shadow=0;glass=0;sketch=0;fontColor=#182E3E;" parent="302" vertex="1"><mxGeometry x="7" y="22" width="106" height="16" as="geometry"/></mxCell><mxCell id="305" value="" style="group;perimeterSpacing=4;strokeColor=none;strokeWidth=7;fontColor=#182E3E;" parent="300" vertex="1" connectable="0"><mxGeometry x="27" y="129" width="120" height="60" as="geometry"/></mxCell><mxCell id="306" value="" style="rounded=1;whiteSpace=wrap;html=1;shadow=0;glass=0;sketch=0;fillColor=#B1DDF0;strokeColor=#BAC8D3;fontColor=#182E3E;" parent="305" vertex="1"><mxGeometry width="120" height="60" as="geometry"/></mxCell><mxCell id="307" value="&lt;font color=&quot;#000000&quot; face=&quot;Verdana&quot;&gt;CovalentProvider&lt;/font&gt;" style="text;html=1;strokeColor=none;fillColor=none;align=center;verticalAlign=middle;whiteSpace=wrap;rounded=0;shadow=0;glass=0;sketch=0;fontColor=#182E3E;" parent="305" vertex="1"><mxGeometry x="7" y="22" width="106" height="16" as="geometry"/></mxCell><mxCell id="96" value="Store" style="swimlane;rounded=1;fillColor=#B1DDF0;strokeColor=#BAC8D3;fontColor=#182E3E;fontFamily=Verdana;" parent="1" vertex="1"><mxGeometry x="-953" y="-1526" width="148" height="347" as="geometry"><mxRectangle x="362" y="106" width="89" height="23" as="alternateBounds"/></mxGeometry></mxCell><mxCell id="97" style="edgeStyle=orthogonalEdgeStyle;orthogonalLoop=1;jettySize=auto;html=1;entryX=0;entryY=0.5;entryDx=0;entryDy=0;rounded=0;curved=1;exitX=0;exitY=0.5;exitDx=0;exitDy=0;dashed=1;labelBackgroundColor=#09555B;strokeColor=#EEEEEE;fontColor=#FFFFFF;" parent="96" edge="1"><mxGeometry relative="1" as="geometry"><mxPoint x="25" y="110.99999999999989" as="sourcePoint"/></mxGeometry></mxCell><mxCell id="134" value="" style="group;fontColor=#182E3E;" parent="96" vertex="1" connectable="0"><mxGeometry x="14.5" y="189" width="120" height="60" as="geometry"/></mxCell><mxCell id="135" value="" style="rounded=1;whiteSpace=wrap;html=1;shadow=0;glass=0;sketch=0;fillColor=#B1DDF0;strokeColor=#BAC8D3;fontColor=#182E3E;" parent="134" vertex="1"><mxGeometry width="120" height="60" as="geometry"/></mxCell><mxCell id="136" value="&lt;font color=&quot;#000000&quot; face=&quot;Verdana&quot;&gt;activeAccount&lt;/font&gt;" style="text;html=1;strokeColor=none;fillColor=none;align=center;verticalAlign=middle;whiteSpace=wrap;rounded=0;shadow=0;glass=0;sketch=0;fontColor=#182E3E;" parent="134" vertex="1"><mxGeometry x="7" y="22" width="106" height="16" as="geometry"/></mxCell><mxCell id="314" value="" style="group;fontColor=#182E3E;" parent="96" vertex="1" connectable="0"><mxGeometry x="13.5" y="262" width="120" height="60" as="geometry"/></mxCell><mxCell id="315" value="" style="rounded=1;whiteSpace=wrap;html=1;shadow=0;glass=0;sketch=0;fillColor=#B1DDF0;strokeColor=#BAC8D3;fontColor=#182E3E;" parent="314" vertex="1"><mxGeometry width="120" height="60" as="geometry"/></mxCell><mxCell id="316" value="&lt;font color=&quot;#000000&quot; face=&quot;Verdana&quot;&gt;nftCollection&lt;/font&gt;" style="text;html=1;strokeColor=none;fillColor=none;align=center;verticalAlign=middle;whiteSpace=wrap;rounded=0;shadow=0;glass=0;sketch=0;fontColor=#182E3E;" parent="314" vertex="1"><mxGeometry x="7" y="22" width="106" height="16" as="geometry"/></mxCell><mxCell id="132" value="" style="group;fontColor=#182E3E;" parent="96" vertex="1" connectable="0"><mxGeometry x="13.5" y="118" width="120" height="60" as="geometry"/></mxCell><mxCell id="130" value="" style="rounded=1;whiteSpace=wrap;html=1;shadow=0;glass=0;sketch=0;fillColor=#B1DDF0;strokeColor=#BAC8D3;fontColor=#182E3E;" parent="132" vertex="1"><mxGeometry width="120" height="60" as="geometry"/></mxCell><mxCell id="131" value="&lt;font color=&quot;#000000&quot; face=&quot;Verdana&quot;&gt;activeNetwork&lt;/font&gt;" style="text;html=1;strokeColor=none;fillColor=none;align=center;verticalAlign=middle;whiteSpace=wrap;rounded=0;shadow=0;glass=0;sketch=0;fontColor=#182E3E;" parent="132" vertex="1"><mxGeometry x="7" y="22" width="106" height="16" as="geometry"/></mxCell><UserObject label="" link="data:page/id,dFFiNFt_rRaHIUI1PMvj" id="336"><mxCell style="group;fontColor=#182E3E;" parent="96" vertex="1" connectable="0"><mxGeometry x="13.5" y="45" width="120" height="60" as="geometry"/></mxCell></UserObject><mxCell id="337" value="" style="rounded=1;whiteSpace=wrap;html=1;shadow=0;glass=0;sketch=0;fillColor=#B1DDF0;strokeColor=#BAC8D3;fontColor=#182E3E;" parent="336" vertex="1"><mxGeometry width="120" height="60" as="geometry"/></mxCell><mxCell id="338" value="&lt;font color=&quot;#000000&quot; face=&quot;Verdana&quot;&gt;network&lt;br&gt;&lt;/font&gt;" style="text;html=1;strokeColor=none;fillColor=none;align=center;verticalAlign=middle;whiteSpace=wrap;rounded=0;shadow=0;glass=0;sketch=0;fontColor=#182E3E;" parent="336" vertex="1"><mxGeometry x="7" y="22" width="106" height="16" as="geometry"/></mxCell><mxCell id="273" style="edgeStyle=none;sketch=0;orthogonalLoop=1;jettySize=auto;html=1;shadow=0;labelBackgroundColor=#09555B;fontFamily=Verdana;fontSize=8;fontColor=#FFFFFF;endArrow=openThin;endFill=0;sourcePerimeterSpacing=4;targetPerimeterSpacing=4;strokeColor=#EEEEEE;strokeWidth=3;dashed=1;dashPattern=1 1;" parent="1" source="105" target="239" edge="1"><mxGeometry relative="1" as="geometry"/></mxCell><mxCell id="105" value="WalletService" style="swimlane;rounded=1;fillColor=#B1DDF0;strokeColor=#BAC8D3;fontColor=#182E3E;fontFamily=Verdana;" parent="1" vertex="1"><mxGeometry x="-686" y="-1337" width="143" height="126" as="geometry"><mxRectangle x="362" y="106" width="89" height="23" as="alternateBounds"/></mxGeometry></mxCell><mxCell id="106" style="edgeStyle=orthogonalEdgeStyle;orthogonalLoop=1;jettySize=auto;html=1;entryX=0;entryY=0.5;entryDx=0;entryDy=0;rounded=0;curved=1;exitX=0;exitY=0.5;exitDx=0;exitDy=0;dashed=1;labelBackgroundColor=#09555B;strokeColor=#EEEEEE;fontColor=#FFFFFF;" parent="105" edge="1"><mxGeometry relative="1" as="geometry"><mxPoint x="25" y="110.99999999999989" as="sourcePoint"/></mxGeometry></mxCell><mxCell id="122" value="" style="group;fontColor=#182E3E;" parent="105" vertex="1" connectable="0"><mxGeometry x="10" y="44" width="120" height="60" as="geometry"/></mxCell><mxCell id="123" value="" style="rounded=1;whiteSpace=wrap;html=1;shadow=0;glass=0;sketch=0;fillColor=#B1DDF0;strokeColor=#BAC8D3;fontColor=#182E3E;" parent="122" vertex="1"><mxGeometry width="120" height="60" as="geometry"/></mxCell><mxCell id="124" value="&lt;font color=&quot;#000000&quot; face=&quot;Verdana&quot;&gt;getEvmWallet&lt;/font&gt;" style="text;html=1;strokeColor=none;fillColor=none;align=center;verticalAlign=middle;whiteSpace=wrap;rounded=0;shadow=0;glass=0;sketch=0;fontColor=#182E3E;" parent="122" vertex="1"><mxGeometry x="7" y="14" width="106" height="16" as="geometry"/></mxCell><mxCell id="125" value="(accIndex, network)" style="text;strokeColor=none;fillColor=none;align=center;verticalAlign=middle;rounded=0;shadow=0;glass=0;sketch=0;fontColor=#182E3E;spacing=2;whiteSpace=wrap;html=1;fontFamily=Verdana;fontSize=8;" parent="122" vertex="1"><mxGeometry x="7" y="33" width="106" height="10" as="geometry"/></mxCell><mxCell id="219" style="edgeStyle=entityRelationEdgeStyle;sketch=0;orthogonalLoop=1;jettySize=auto;html=1;shadow=0;labelBackgroundColor=#09555B;fontFamily=Verdana;fontSize=8;fontColor=#FFFFFF;endArrow=openThin;endFill=0;sourcePerimeterSpacing=4;targetPerimeterSpacing=4;strokeColor=#EEEEEE;strokeWidth=3;" parent="1" source="130" target="123" edge="1"><mxGeometry relative="1" as="geometry"/></mxCell><mxCell id="161" value="BalanceService" style="swimlane;rounded=1;fillColor=#B1DDF0;strokeColor=#BAC8D3;fontColor=#182E3E;fontFamily=Verdana;" parent="1" vertex="1"><mxGeometry x="-633" y="-1526" width="153" height="146" as="geometry"><mxRectangle x="362" y="106" width="89" height="23" as="alternateBounds"/></mxGeometry></mxCell><mxCell id="162" style="edgeStyle=orthogonalEdgeStyle;orthogonalLoop=1;jettySize=auto;html=1;entryX=0;entryY=0.5;entryDx=0;entryDy=0;rounded=0;curved=1;exitX=0;exitY=0.5;exitDx=0;exitDy=0;dashed=1;labelBackgroundColor=#09555B;strokeColor=#EEEEEE;fontColor=#FFFFFF;" parent="161" edge="1"><mxGeometry relative="1" as="geometry"><mxPoint x="25" y="110.99999999999989" as="sourcePoint"/></mxGeometry></mxCell><mxCell id="166" value="" style="group;fontColor=#182E3E;" parent="161" vertex="1" connectable="0"><mxGeometry x="16.5" y="35" width="120" height="60" as="geometry"/></mxCell><mxCell id="167" value="" style="rounded=1;whiteSpace=wrap;html=1;shadow=0;glass=0;sketch=0;fillColor=#B1DDF0;strokeColor=#BAC8D3;fontColor=#182E3E;" parent="166" vertex="1"><mxGeometry width="120" height="60" as="geometry"/></mxCell><mxCell id="168" value="&lt;font color=&quot;#000000&quot; face=&quot;Verdana&quot;&gt;getBalances&lt;/font&gt;" style="text;html=1;strokeColor=none;fillColor=none;align=center;verticalAlign=middle;whiteSpace=wrap;rounded=0;shadow=0;glass=0;sketch=0;fontColor=#182E3E;" parent="166" vertex="1"><mxGeometry x="7" y="14" width="106" height="16" as="geometry"/></mxCell><mxCell id="169" value="(address, network)" style="text;strokeColor=none;fillColor=none;align=center;verticalAlign=middle;rounded=0;shadow=0;glass=0;sketch=0;fontColor=#182E3E;spacing=2;whiteSpace=wrap;html=1;fontFamily=Verdana;fontSize=8;" parent="166" vertex="1"><mxGeometry x="7" y="33" width="106" height="10" as="geometry"/></mxCell><mxCell id="218" style="edgeStyle=entityRelationEdgeStyle;sketch=0;orthogonalLoop=1;jettySize=auto;html=1;shadow=0;labelBackgroundColor=#09555B;fontFamily=Verdana;fontSize=8;fontColor=#FFFFFF;endArrow=openThin;endFill=0;sourcePerimeterSpacing=4;targetPerimeterSpacing=4;strokeColor=#EEEEEE;strokeWidth=3;" parent="1" source="130" target="167" edge="1"><mxGeometry relative="1" as="geometry"/></mxCell><mxCell id="274" style="edgeStyle=elbowEdgeStyle;sketch=0;orthogonalLoop=1;jettySize=auto;html=1;shadow=0;dashed=1;dashPattern=1 1;labelBackgroundColor=#09555B;fontFamily=Verdana;fontSize=8;fontColor=#FFFFFF;endArrow=openThin;endFill=0;sourcePerimeterSpacing=4;targetPerimeterSpacing=4;strokeColor=#EEEEEE;strokeWidth=3;elbow=vertical;" parent="1" source="101" target="239" edge="1"><mxGeometry relative="1" as="geometry"/></mxCell><mxCell id="101" value="NetworkService" style="swimlane;rounded=1;fillColor=#B1DDF0;strokeColor=#BAC8D3;fontColor=#182E3E;fontFamily=Verdana;" parent="1" vertex="1"><mxGeometry x="-471" y="-1165" width="156" height="225" as="geometry"><mxRectangle x="362" y="106" width="89" height="23" as="alternateBounds"/></mxGeometry></mxCell><mxCell id="102" style="edgeStyle=orthogonalEdgeStyle;orthogonalLoop=1;jettySize=auto;html=1;entryX=0;entryY=0.5;entryDx=0;entryDy=0;rounded=0;curved=1;exitX=0;exitY=0.5;exitDx=0;exitDy=0;dashed=1;labelBackgroundColor=#09555B;strokeColor=#EEEEEE;fontColor=#FFFFFF;" parent="101" edge="1"><mxGeometry relative="1" as="geometry"><mxPoint x="25" y="110.99999999999989" as="sourcePoint"/></mxGeometry></mxCell><mxCell id="224" value="" style="group;fontColor=#182E3E;" parent="101" vertex="1" connectable="0"><mxGeometry x="18" y="45.5" width="120" height="60" as="geometry"/></mxCell><mxCell id="225" value="" style="rounded=1;whiteSpace=wrap;html=1;shadow=0;glass=0;sketch=0;fillColor=#B1DDF0;strokeColor=#BAC8D3;fontColor=#182E3E;" parent="224" vertex="1"><mxGeometry width="120" height="60" as="geometry"/></mxCell><mxCell id="226" value="&lt;font color=&quot;#000000&quot; face=&quot;Verdana&quot;&gt;getProvider&lt;/font&gt;" style="text;html=1;strokeColor=none;fillColor=none;align=center;verticalAlign=middle;whiteSpace=wrap;rounded=0;shadow=0;glass=0;sketch=0;fontColor=#182E3E;" parent="224" vertex="1"><mxGeometry x="7" y="14" width="106" height="16" as="geometry"/></mxCell><mxCell id="227" value="(network)" style="text;strokeColor=none;fillColor=none;align=center;verticalAlign=middle;rounded=0;shadow=0;glass=0;sketch=0;fontColor=#182E3E;spacing=2;whiteSpace=wrap;html=1;fontFamily=Verdana;fontSize=8;" parent="224" vertex="1"><mxGeometry x="7" y="33" width="106" height="10" as="geometry"/></mxCell><mxCell id="275" value="" style="group;fontColor=#182E3E;" parent="101" vertex="1" connectable="0"><mxGeometry x="18" y="128" width="120" height="60" as="geometry"/></mxCell><mxCell id="276" value="" style="rounded=1;whiteSpace=wrap;html=1;shadow=0;glass=0;sketch=0;fillColor=#B1DDF0;strokeColor=#BAC8D3;fontColor=#182E3E;" parent="275" vertex="1"><mxGeometry width="120" height="60" as="geometry"/></mxCell><mxCell id="277" value="&lt;font color=&quot;#000000&quot; face=&quot;Verdana&quot;&gt;sendTransaction&lt;/font&gt;" style="text;html=1;strokeColor=none;fillColor=none;align=center;verticalAlign=middle;whiteSpace=wrap;rounded=0;shadow=0;glass=0;sketch=0;fontColor=#182E3E;" parent="275" vertex="1"><mxGeometry x="7" y="14" width="106" height="16" as="geometry"/></mxCell><mxCell id="278" value="(signedTx, network)" style="text;strokeColor=none;fillColor=none;align=center;verticalAlign=middle;rounded=0;shadow=0;glass=0;sketch=0;fontColor=#182E3E;spacing=2;whiteSpace=wrap;html=1;fontFamily=Verdana;fontSize=8;" parent="275" vertex="1"><mxGeometry x="7" y="33" width="106" height="10" as="geometry"/></mxCell><mxCell id="229" style="edgeStyle=elbowEdgeStyle;sketch=0;orthogonalLoop=1;jettySize=auto;html=1;shadow=0;labelBackgroundColor=#09555B;fontFamily=Verdana;fontSize=8;fontColor=#FFFFFF;endArrow=openThin;endFill=0;sourcePerimeterSpacing=4;targetPerimeterSpacing=4;strokeColor=#EEEEEE;strokeWidth=3;" parent="1" source="225" target="167" edge="1"><mxGeometry relative="1" as="geometry"/></mxCell><mxCell id="236" style="edgeStyle=entityRelationEdgeStyle;sketch=0;orthogonalLoop=1;jettySize=auto;html=1;shadow=0;labelBackgroundColor=#09555B;fontFamily=Verdana;fontSize=8;fontColor=#FFFFFF;endArrow=openThin;endFill=0;sourcePerimeterSpacing=4;targetPerimeterSpacing=4;strokeColor=#EEEEEE;strokeWidth=3;" parent="1" source="135" target="123" edge="1"><mxGeometry relative="1" as="geometry"/></mxCell><mxCell id="238" value="" style="edgeStyle=entityRelationEdgeStyle;sketch=0;orthogonalLoop=1;jettySize=auto;html=1;shadow=0;labelBackgroundColor=#09555B;fontFamily=Verdana;fontSize=8;fontColor=#FFFFFF;endArrow=openThin;endFill=0;sourcePerimeterSpacing=4;targetPerimeterSpacing=4;strokeColor=#EEEEEE;strokeWidth=3;dashed=1;dashPattern=1 1;" parent="1" source="225" target="123" edge="1"><mxGeometry relative="1" as="geometry"/></mxCell><mxCell id="239" value="SendService" style="swimlane;rounded=1;fillColor=#B1DDF0;strokeColor=#BAC8D3;fontColor=#182E3E;fontFamily=Verdana;" parent="1" vertex="1"><mxGeometry x="-686" y="-1037" width="143" height="209" as="geometry"><mxRectangle x="362" y="106" width="89" height="23" as="alternateBounds"/></mxGeometry></mxCell><mxCell id="240" style="edgeStyle=orthogonalEdgeStyle;orthogonalLoop=1;jettySize=auto;html=1;entryX=0;entryY=0.5;entryDx=0;entryDy=0;rounded=0;curved=1;exitX=0;exitY=0.5;exitDx=0;exitDy=0;dashed=1;labelBackgroundColor=#09555B;strokeColor=#EEEEEE;fontColor=#FFFFFF;" parent="239" edge="1"><mxGeometry relative="1" as="geometry"><mxPoint x="25" y="110.99999999999989" as="sourcePoint"/></mxGeometry></mxCell><mxCell id="241" value="" style="group;fontColor=#182E3E;" parent="239" vertex="1" connectable="0"><mxGeometry x="10" y="44" width="120" height="60" as="geometry"/></mxCell><mxCell id="242" value="" style="rounded=1;whiteSpace=wrap;html=1;shadow=0;glass=0;sketch=0;fillColor=#B1DDF0;strokeColor=#BAC8D3;fontColor=#182E3E;" parent="241" vertex="1"><mxGeometry width="120" height="60" as="geometry"/></mxCell><mxCell id="243" value="&lt;font color=&quot;#000000&quot; face=&quot;Verdana&quot;&gt;send&lt;/font&gt;" style="text;html=1;strokeColor=none;fillColor=none;align=center;verticalAlign=middle;whiteSpace=wrap;rounded=0;shadow=0;glass=0;sketch=0;fontColor=#182E3E;" parent="241" vertex="1"><mxGeometry x="7" y="14" width="106" height="16" as="geometry"/></mxCell><mxCell id="244" value="(sendState, network, accIndex)" style="text;strokeColor=none;fillColor=none;align=center;verticalAlign=middle;rounded=0;shadow=0;glass=0;sketch=0;fontColor=#182E3E;spacing=2;whiteSpace=wrap;html=1;fontFamily=Verdana;fontSize=8;" parent="241" vertex="1"><mxGeometry x="7" y="33" width="106" height="10" as="geometry"/></mxCell><mxCell id="252" value="" style="group;fontColor=#182E3E;" parent="239" vertex="1" connectable="0"><mxGeometry x="11" y="136" width="120" height="60" as="geometry"/></mxCell><mxCell id="253" value="" style="rounded=1;whiteSpace=wrap;html=1;shadow=0;glass=0;sketch=0;fillColor=#B1DDF0;strokeColor=#BAC8D3;fontColor=#182E3E;" parent="252" vertex="1"><mxGeometry width="120" height="60" as="geometry"/></mxCell><mxCell id="254" value="&lt;font color=&quot;#000000&quot; face=&quot;Verdana&quot;&gt;pickSendService&lt;/font&gt;" style="text;html=1;strokeColor=none;fillColor=none;align=center;verticalAlign=middle;whiteSpace=wrap;rounded=0;shadow=0;glass=0;sketch=0;fontColor=#182E3E;" parent="252" vertex="1"><mxGeometry x="7" y="14" width="106" height="16" as="geometry"/></mxCell><mxCell id="255" value="(network)" style="text;strokeColor=none;fillColor=none;align=center;verticalAlign=middle;rounded=0;shadow=0;glass=0;sketch=0;fontColor=#182E3E;spacing=2;whiteSpace=wrap;html=1;fontFamily=Verdana;fontSize=8;" parent="252" vertex="1"><mxGeometry x="7" y="33" width="106" height="10" as="geometry"/></mxCell><mxCell id="258" style="edgeStyle=entityRelationEdgeStyle;sketch=0;orthogonalLoop=1;jettySize=auto;html=1;shadow=0;labelBackgroundColor=#09555B;fontFamily=Verdana;fontSize=8;fontColor=#FFFFFF;endArrow=openThin;endFill=0;sourcePerimeterSpacing=4;targetPerimeterSpacing=4;strokeColor=#EEEEEE;strokeWidth=3;" parent="239" source="253" target="242" edge="1"><mxGeometry relative="1" as="geometry"/></mxCell><mxCell id="290" value="NftService" style="swimlane;rounded=1;fillColor=#B1DDF0;strokeColor=#BAC8D3;fontColor=#182E3E;fontFamily=Verdana;" parent="1" vertex="1"><mxGeometry x="-963" y="-1082" width="156" height="225" as="geometry"><mxRectangle x="362" y="106" width="89" height="23" as="alternateBounds"/></mxGeometry></mxCell><mxCell id="291" style="edgeStyle=orthogonalEdgeStyle;orthogonalLoop=1;jettySize=auto;html=1;entryX=0;entryY=0.5;entryDx=0;entryDy=0;rounded=0;curved=1;exitX=0;exitY=0.5;exitDx=0;exitDy=0;dashed=1;labelBackgroundColor=#09555B;strokeColor=#EEEEEE;fontColor=#FFFFFF;" parent="290" edge="1"><mxGeometry relative="1" as="geometry"><mxPoint x="25" y="110.99999999999989" as="sourcePoint"/></mxGeometry></mxCell><mxCell id="292" value="" style="group;fontColor=#182E3E;" parent="290" vertex="1" connectable="0"><mxGeometry x="18" y="45.5" width="120" height="60" as="geometry"/></mxCell><mxCell id="293" value="" style="rounded=1;whiteSpace=wrap;html=1;shadow=0;glass=0;sketch=0;fillColor=#B1DDF0;strokeColor=#BAC8D3;fontColor=#182E3E;" parent="292" vertex="1"><mxGeometry width="120" height="60" as="geometry"/></mxCell><mxCell id="294" value="&lt;font color=&quot;#000000&quot; face=&quot;Verdana&quot;&gt;getProvider&lt;br&gt;&lt;/font&gt;" style="text;html=1;strokeColor=none;fillColor=none;align=center;verticalAlign=middle;whiteSpace=wrap;rounded=0;shadow=0;glass=0;sketch=0;fontColor=#182E3E;" parent="292" vertex="1"><mxGeometry x="7" y="14" width="106" height="16" as="geometry"/></mxCell><mxCell id="295" value="(network)" style="text;strokeColor=none;fillColor=none;align=center;verticalAlign=middle;rounded=0;shadow=0;glass=0;sketch=0;fontColor=#182E3E;spacing=2;whiteSpace=wrap;html=1;fontFamily=Verdana;fontSize=8;" parent="292" vertex="1"><mxGeometry x="7" y="33" width="106" height="10" as="geometry"/></mxCell><mxCell id="296" value="" style="group;fontColor=#182E3E;" parent="290" vertex="1" connectable="0"><mxGeometry x="18" y="128" width="120" height="60" as="geometry"/></mxCell><mxCell id="297" value="" style="rounded=1;whiteSpace=wrap;html=1;shadow=0;glass=0;sketch=0;fillColor=#B1DDF0;strokeColor=#BAC8D3;fontColor=#182E3E;" parent="296" vertex="1"><mxGeometry width="120" height="60" as="geometry"/></mxCell><mxCell id="298" value="&lt;font color=&quot;#000000&quot; face=&quot;Verdana&quot;&gt;fetchNFTs&lt;/font&gt;" style="text;html=1;strokeColor=none;fillColor=none;align=center;verticalAlign=middle;whiteSpace=wrap;rounded=0;shadow=0;glass=0;sketch=0;fontColor=#182E3E;" parent="296" vertex="1"><mxGeometry x="7" y="14" width="106" height="16" as="geometry"/></mxCell><mxCell id="299" value="(chainId, address)" style="text;strokeColor=none;fillColor=none;align=center;verticalAlign=middle;rounded=0;shadow=0;glass=0;sketch=0;fontColor=#182E3E;spacing=2;whiteSpace=wrap;html=1;fontFamily=Verdana;fontSize=8;" parent="296" vertex="1"><mxGeometry x="7" y="33" width="106" height="10" as="geometry"/></mxCell><mxCell id="317" style="edgeStyle=elbowEdgeStyle;rounded=1;orthogonalLoop=1;jettySize=auto;html=1;shadow=0;fontFamily=Verdana;fontSize=8;fontColor=#FFFFFF;strokeColor=#EEEEEE;strokeWidth=3;labelBackgroundColor=#09555B;endFill=0;endArrow=openThin;targetPerimeterSpacing=4;sourcePerimeterSpacing=4;sketch=0;" parent="1" source="297" target="315" edge="1"><mxGeometry relative="1" as="geometry"><Array as="points"><mxPoint x="-740" y="-1078"/></Array></mxGeometry></mxCell><mxCell id="324" style="edgeStyle=orthogonalEdgeStyle;rounded=1;orthogonalLoop=1;jettySize=auto;html=1;entryX=1;entryY=0.5;entryDx=0;entryDy=0;shadow=0;fontFamily=Verdana;fontSize=8;fontColor=#FFFFFF;strokeColor=#EEEEEE;strokeWidth=3;labelBackgroundColor=#09555B;endFill=0;endArrow=openThin;targetPerimeterSpacing=4;sourcePerimeterSpacing=4;sketch=0;" parent="1" source="318" target="167" edge="1"><mxGeometry relative="1" as="geometry"/></mxCell><mxCell id="325" value="BalanceServiceProvider" style="swimlane;rounded=1;fillColor=#1ba1e2;strokeColor=#006EAF;fontColor=#ffffff;" parent="1" vertex="1"><mxGeometry x="-267.5" y="-1740" width="188" height="513" as="geometry"><mxRectangle x="-267.5" y="-1740" width="89" height="23" as="alternateBounds"/></mxGeometry></mxCell><mxCell id="326" style="edgeStyle=orthogonalEdgeStyle;orthogonalLoop=1;jettySize=auto;html=1;entryX=0;entryY=0.5;entryDx=0;entryDy=0;rounded=0;curved=1;exitX=0;exitY=0.5;exitDx=0;exitDy=0;dashed=1;labelBackgroundColor=#09555B;strokeColor=#EEEEEE;fontColor=#FFFFFF;" parent="325" edge="1"><mxGeometry relative="1" as="geometry"><mxPoint x="25" y="110.99999999999989" as="sourcePoint"/></mxGeometry></mxCell><mxCell id="318" value="GlacierBalanceSvc" style="swimlane;rounded=1;fillColor=#B1DDF0;strokeColor=#BAC8D3;fontColor=#182E3E;fontFamily=Verdana;startSize=23;" parent="325" vertex="1"><mxGeometry x="21" y="50" width="141" height="127" as="geometry"><mxRectangle x="362" y="106" width="89" height="23" as="alternateBounds"/></mxGeometry></mxCell><mxCell id="319" style="edgeStyle=orthogonalEdgeStyle;orthogonalLoop=1;jettySize=auto;html=1;entryX=0;entryY=0.5;entryDx=0;entryDy=0;rounded=0;curved=1;exitX=0;exitY=0.5;exitDx=0;exitDy=0;dashed=1;labelBackgroundColor=#09555B;strokeColor=#EEEEEE;fontColor=#FFFFFF;" parent="318" edge="1"><mxGeometry relative="1" as="geometry"><mxPoint x="25" y="110.99999999999989" as="sourcePoint"/></mxGeometry></mxCell><mxCell id="320" value="" style="group;fontColor=#182E3E;" parent="318" vertex="1" connectable="0"><mxGeometry x="10" y="43" width="120" height="60" as="geometry"/></mxCell><mxCell id="321" value="" style="rounded=1;whiteSpace=wrap;html=1;shadow=0;glass=0;sketch=0;fillColor=#B1DDF0;strokeColor=#BAC8D3;fontColor=#182E3E;" parent="320" vertex="1"><mxGeometry width="120" height="60" as="geometry"/></mxCell><mxCell id="322" value="&lt;font color=&quot;#000000&quot; face=&quot;Verdana&quot;&gt;getBalances&lt;/font&gt;" style="text;html=1;strokeColor=none;fillColor=none;align=center;verticalAlign=middle;whiteSpace=wrap;rounded=0;shadow=0;glass=0;sketch=0;fontColor=#182E3E;" parent="320" vertex="1"><mxGeometry x="7" y="14" width="106" height="16" as="geometry"/></mxCell><mxCell id="323" value="(network, address, currency)" style="text;strokeColor=none;fillColor=none;align=center;verticalAlign=middle;rounded=0;shadow=0;glass=0;sketch=0;fontColor=#182E3E;spacing=2;whiteSpace=wrap;html=1;fontFamily=Verdana;fontSize=8;" parent="320" vertex="1"><mxGeometry x="7" y="33" width="106" height="10" as="geometry"/></mxCell><mxCell id="170" value="BTCBalanceSvc" style="swimlane;rounded=1;fillColor=#B1DDF0;strokeColor=#BAC8D3;fontColor=#182E3E;fontFamily=Verdana;" parent="325" vertex="1"><mxGeometry x="21" y="215.5" width="141" height="127" as="geometry"><mxRectangle x="362" y="106" width="89" height="23" as="alternateBounds"/></mxGeometry></mxCell><mxCell id="171" style="edgeStyle=orthogonalEdgeStyle;orthogonalLoop=1;jettySize=auto;html=1;entryX=0;entryY=0.5;entryDx=0;entryDy=0;rounded=0;curved=1;exitX=0;exitY=0.5;exitDx=0;exitDy=0;dashed=1;labelBackgroundColor=#09555B;strokeColor=#EEEEEE;fontColor=#FFFFFF;" parent="170" edge="1"><mxGeometry relative="1" as="geometry"><mxPoint x="25" y="110.99999999999989" as="sourcePoint"/></mxGeometry></mxCell><mxCell id="172" value="" style="group;fontColor=#182E3E;" parent="170" vertex="1" connectable="0"><mxGeometry x="10" y="43" width="120" height="60" as="geometry"/></mxCell><mxCell id="173" value="" style="rounded=1;whiteSpace=wrap;html=1;shadow=0;glass=0;sketch=0;fillColor=#B1DDF0;strokeColor=#BAC8D3;fontColor=#182E3E;" parent="172" vertex="1"><mxGeometry width="120" height="60" as="geometry"/></mxCell><mxCell id="174" value="&lt;font color=&quot;#000000&quot; face=&quot;Verdana&quot;&gt;getBalances&lt;/font&gt;" style="text;html=1;strokeColor=none;fillColor=none;align=center;verticalAlign=middle;whiteSpace=wrap;rounded=0;shadow=0;glass=0;sketch=0;fontColor=#182E3E;" parent="172" vertex="1"><mxGeometry x="7" y="14" width="106" height="16" as="geometry"/></mxCell><mxCell id="175" value="(network, address, currency)" style="text;strokeColor=none;fillColor=none;align=center;verticalAlign=middle;rounded=0;shadow=0;glass=0;sketch=0;fontColor=#182E3E;spacing=2;whiteSpace=wrap;html=1;fontFamily=Verdana;fontSize=8;" parent="172" vertex="1"><mxGeometry x="7" y="33" width="106" height="10" as="geometry"/></mxCell><mxCell id="188" value="EVMBalanceSvc" style="swimlane;rounded=1;fillColor=#B1DDF0;strokeColor=#BAC8D3;fontColor=#182E3E;fontFamily=Verdana;" parent="325" vertex="1"><mxGeometry x="23.5" y="366" width="141" height="127" as="geometry"><mxRectangle x="362" y="106" width="89" height="23" as="alternateBounds"/></mxGeometry></mxCell><mxCell id="189" style="edgeStyle=orthogonalEdgeStyle;orthogonalLoop=1;jettySize=auto;html=1;entryX=0;entryY=0.5;entryDx=0;entryDy=0;rounded=0;curved=1;exitX=0;exitY=0.5;exitDx=0;exitDy=0;dashed=1;labelBackgroundColor=#09555B;strokeColor=#EEEEEE;fontColor=#FFFFFF;" parent="188" edge="1"><mxGeometry relative="1" as="geometry"><mxPoint x="25" y="110.99999999999989" as="sourcePoint"/></mxGeometry></mxCell><mxCell id="190" value="" style="group;fontColor=#182E3E;" parent="188" vertex="1" connectable="0"><mxGeometry x="10" y="43" width="120" height="60" as="geometry"/></mxCell><mxCell id="191" value="" style="rounded=1;whiteSpace=wrap;html=1;shadow=0;glass=0;sketch=0;fillColor=#B1DDF0;strokeColor=#BAC8D3;fontColor=#182E3E;" parent="190" vertex="1"><mxGeometry width="120" height="60" as="geometry"/></mxCell><mxCell id="192" value="&lt;font color=&quot;#000000&quot; face=&quot;Verdana&quot;&gt;getBalances&lt;/font&gt;" style="text;html=1;strokeColor=none;fillColor=none;align=center;verticalAlign=middle;whiteSpace=wrap;rounded=0;shadow=0;glass=0;sketch=0;fontColor=#182E3E;" parent="190" vertex="1"><mxGeometry x="7" y="14" width="106" height="16" as="geometry"/></mxCell><mxCell id="193" value="(network, address, currency)" style="text;strokeColor=none;fillColor=none;align=center;verticalAlign=middle;rounded=0;shadow=0;glass=0;sketch=0;fontColor=#182E3E;spacing=2;whiteSpace=wrap;html=1;fontFamily=Verdana;fontSize=8;" parent="190" vertex="1"><mxGeometry x="7" y="33" width="106" height="10" as="geometry"/></mxCell></root></mxGraphModel></diagram><diagram name="Network store" id="dFFiNFt_rRaHIUI1PMvj"><mxGraphModel dx="1776" dy="2720" grid="0" gridSize="10" guides="1" tooltips="1" connect="1" arrows="1" fold="1" page="0" pageScale="1" pageWidth="850" pageHeight="1100" background="#09555B" math="0" shadow="0"><root><mxCell id="oEa1LQWHLjVbUUgCBqCm-0"/><mxCell id="oEa1LQWHLjVbUUgCBqCm-1" parent="oEa1LQWHLjVbUUgCBqCm-0"/><mxCell id="_VwyDAd4XzTw5CxPkTpG-0" value="State" style="swimlane;rounded=1;fillColor=#B1DDF0;strokeColor=#BAC8D3;fontColor=#182E3E;fontFamily=Verdana;" parent="oEa1LQWHLjVbUUgCBqCm-1" vertex="1"><mxGeometry x="-795" y="-1519" width="148" height="347" as="geometry"><mxRectangle x="362" y="106" width="89" height="23" as="alternateBounds"/></mxGeometry></mxCell><mxCell id="_VwyDAd4XzTw5CxPkTpG-1" style="edgeStyle=orthogonalEdgeStyle;orthogonalLoop=1;jettySize=auto;html=1;entryX=0;entryY=0.5;entryDx=0;entryDy=0;rounded=0;curved=1;exitX=0;exitY=0.5;exitDx=0;exitDy=0;dashed=1;labelBackgroundColor=#09555B;strokeColor=#EEEEEE;fontColor=#FFFFFF;" parent="_VwyDAd4XzTw5CxPkTpG-0" edge="1"><mxGeometry relative="1" as="geometry"><mxPoint x="25" y="110.99999999999989" as="sourcePoint"/></mxGeometry></mxCell><mxCell id="_VwyDAd4XzTw5CxPkTpG-2" value="" style="group;fontColor=#182E3E;" parent="_VwyDAd4XzTw5CxPkTpG-0" vertex="1" connectable="0"><mxGeometry x="14.5" y="189" width="120" height="60" as="geometry"/></mxCell><mxCell id="_VwyDAd4XzTw5CxPkTpG-3" value="" style="rounded=1;whiteSpace=wrap;html=1;shadow=0;glass=0;sketch=0;fillColor=#B1DDF0;strokeColor=#BAC8D3;fontColor=#182E3E;" parent="_VwyDAd4XzTw5CxPkTpG-2" vertex="1"><mxGeometry width="120" height="60" as="geometry"/></mxCell><mxCell id="_VwyDAd4XzTw5CxPkTpG-4" value="&lt;font color=&quot;#000000&quot; face=&quot;Verdana&quot;&gt;favorites&lt;/font&gt;" style="text;html=1;strokeColor=none;fillColor=none;align=center;verticalAlign=middle;whiteSpace=wrap;rounded=0;shadow=0;glass=0;sketch=0;fontColor=#182E3E;" parent="_VwyDAd4XzTw5CxPkTpG-2" vertex="1"><mxGeometry x="7" y="22" width="106" height="16" as="geometry"/></mxCell><mxCell id="_VwyDAd4XzTw5CxPkTpG-5" value="" style="group;fontColor=#182E3E;" parent="_VwyDAd4XzTw5CxPkTpG-0" vertex="1" connectable="0"><mxGeometry x="13.5" y="262" width="120" height="60" as="geometry"/></mxCell><mxCell id="_VwyDAd4XzTw5CxPkTpG-6" value="" style="rounded=1;whiteSpace=wrap;html=1;shadow=0;glass=0;sketch=0;fillColor=#B1DDF0;strokeColor=#BAC8D3;fontColor=#182E3E;" parent="_VwyDAd4XzTw5CxPkTpG-5" vertex="1"><mxGeometry width="120" height="60" as="geometry"/></mxCell><mxCell id="_VwyDAd4XzTw5CxPkTpG-7" value="&lt;font color=&quot;#000000&quot; face=&quot;Verdana&quot;&gt;active (network)&lt;br&gt;&lt;/font&gt;" style="text;html=1;strokeColor=none;fillColor=none;align=center;verticalAlign=middle;whiteSpace=wrap;rounded=0;shadow=0;glass=0;sketch=0;fontColor=#182E3E;" parent="_VwyDAd4XzTw5CxPkTpG-5" vertex="1"><mxGeometry x="7" y="22" width="106" height="16" as="geometry"/></mxCell><mxCell id="_VwyDAd4XzTw5CxPkTpG-8" value="" style="group;fontColor=#182E3E;" parent="_VwyDAd4XzTw5CxPkTpG-0" vertex="1" connectable="0"><mxGeometry x="13.5" y="118" width="120" height="60" as="geometry"/></mxCell><mxCell id="_VwyDAd4XzTw5CxPkTpG-9" value="" style="rounded=1;whiteSpace=wrap;html=1;shadow=0;glass=0;sketch=0;fillColor=#B1DDF0;strokeColor=#BAC8D3;fontColor=#182E3E;" parent="_VwyDAd4XzTw5CxPkTpG-8" vertex="1"><mxGeometry width="120" height="60" as="geometry"/></mxCell><mxCell id="_VwyDAd4XzTw5CxPkTpG-10" value="&lt;font color=&quot;#000000&quot; face=&quot;Verdana&quot;&gt;customNetworks&lt;/font&gt;" style="text;html=1;strokeColor=none;fillColor=none;align=center;verticalAlign=middle;whiteSpace=wrap;rounded=0;shadow=0;glass=0;sketch=0;fontColor=#182E3E;" parent="_VwyDAd4XzTw5CxPkTpG-8" vertex="1"><mxGeometry x="7" y="22" width="106" height="16" as="geometry"/></mxCell><UserObject label="" id="_VwyDAd4XzTw5CxPkTpG-11"><mxCell style="group;fontColor=#182E3E;" parent="_VwyDAd4XzTw5CxPkTpG-0" vertex="1" connectable="0"><mxGeometry x="13.5" y="45" width="120" height="60" as="geometry"/></mxCell></UserObject><mxCell id="_VwyDAd4XzTw5CxPkTpG-12" value="" style="rounded=1;whiteSpace=wrap;html=1;shadow=0;glass=0;sketch=0;fillColor=#B1DDF0;strokeColor=#BAC8D3;fontColor=#182E3E;" parent="_VwyDAd4XzTw5CxPkTpG-11" vertex="1"><mxGeometry width="120" height="60" as="geometry"/></mxCell><mxCell id="_VwyDAd4XzTw5CxPkTpG-13" value="&lt;font color=&quot;#000000&quot; face=&quot;Verdana&quot;&gt;networks&lt;br&gt;&lt;/font&gt;" style="text;html=1;strokeColor=none;fillColor=none;align=center;verticalAlign=middle;whiteSpace=wrap;rounded=0;shadow=0;glass=0;sketch=0;fontColor=#182E3E;" parent="_VwyDAd4XzTw5CxPkTpG-11" vertex="1"><mxGeometry x="7" y="22" width="106" height="16" as="geometry"/></mxCell></root></mxGraphModel></diagram></mxfile>